PathFileType	4	(X/Y/Z)	0_coords_data.trc
DataRate	CameraRate	NumFrames	NumMarkers	Units	OrigDataRate	OrigDataStartFrame	OrigNumFrames
30.0	30.0	4	21	m	30.0	1	71
Frame#	Time	THUMB_TIP	THUMB_IP	THUMB_MCP	THUMB_CMC	INDEX_TIP	INDEX_DIP	INDEX_PIP	INDEX_MCP	MIDDLE_TIP	MIDDLE_DIP	MIDDLE_PIP	MIDDLE_MCP	RING_TIP	RING_DIP	RING_PIP	RING_MCP	PINKY_TIP	PINKY_DIP	PINKY_PIP	PINKY_MCP	WRIST
X1	Y1	Z1	X2	Y2	Z2	X3	Y3	Z3	X4	Y4	Z4	X5	Y5	Z5	X6	Y6	Z6	X7	Y7	Z7	X8	Y8	Z8	X9	Y9	Z9	X10	Y10	Z10	X11	Y11	Z11	X12	Y12	Z12	X13	Y13	Z13	X14	Y14	Z14	X15	Y15	Z15	X16	Y16	Z16	X17	Y17	Z17	X18	Y18	Z18	X19	Y19	Z19	X20	Y20	Z20	X21	Y21	Z21
0	0.0	-0.013273900032043456	-0.13718699645996094	0.9865809936523438	-0.001164819955825805	-0.1113769989013672	0.988541015625	-0.009899729728698731	-0.08662680053710937	1.0053699951171875	-0.011680100440979004	-0.04871250152587891	1.01977001953125	0.003265399932861328	-0.09710600280761719	0.8757860107421875	0.003446979999542236	-0.08841719818115235	0.8987479858398437	0.0021414399147033692	-0.07905020141601563	0.921614990234375	-0.006532179832458496	-0.06222610092163086	0.9568159790039062	0.000948058009147644	-0.030305000305175783	0.8519249877929688	0.003473870038986206	-0.033088199615478514	0.8792999877929687	0.002547620058059692	-0.03521429824829102	0.9096680297851563	-0.006403590202331543	-0.03607619857788086	0.9505900268554688	0.003310090065002441	0.01807309913635254	0.8624290161132813	0.005373179912567139	0.009696249961853027	0.8875659790039062	0.004492420196533203	0.000301342010498046	0.914875	9.6785202622413e-05	-0.012026599884033203	0.9517969970703125	0.027712400436401368	0.06164550018310547	0.9135609741210937	0.020353000640869142	0.04662260055541992	0.9279400024414063	0.012051400184631347	0.032244800567626956	0.9406589965820312	0.00011780100315809201	0.009664609909057617	0.9603469848632813	-0.0362239990234375	-0.016046899795532227	1.0393699951171875
1	0.03333333333333333	-0.012803600311279298	-0.13745599365234376	0.9861840209960937	-0.000694832026958465	-0.1117030029296875	0.9879970092773438	-0.00976632022857666	-0.08687950134277343	1.0051199951171874	-0.011631199836730957	-0.04901689910888672	1.0195800170898437	0.003988739967346191	-0.09709519958496093	0.8755570068359375	0.00415447998046875	-0.08844840240478516	0.8985640258789063	0.002774110078811645	-0.07911280059814453	0.921416015625	-0.00637943983078003	-0.06222629928588867	0.9566320190429688	0.0019617899656295774	-0.03086450004577637	0.8519630126953125	0.004447700023651123	-0.033470298767089846	0.87914501953125	0.003434279918670654	-0.035548599243164065	0.9094390258789062	-0.006053209781646728	-0.036089599609375	0.95022900390625	0.004690849781036377	0.018629899978637697	0.8626610107421875	0.006448939800262451	0.010148599624633789	0.8879000244140625	0.005246079921722412	0.00048339599370956403	0.9151580200195313	0.000300074994564056	-0.012007200241088867	0.9517839965820313	0.029078399658203125	0.06186600112915039	0.9146090087890625	0.02145050048828125	0.046607601165771485	0.9287340087890625	0.0129197998046875	0.03225920104980469	0.9411439819335937	0.000380277007818222	0.009602510452270507	0.9604080200195313	-0.036482799530029295	-0.016389799118041993	1.0395899658203125
2	0.06666666666666667	-0.012510299682617188	-0.13785800170898438	0.9860339965820313	-0.00048065099120140004	-0.11211100006103515	0.9879400024414062	-0.009532139778137208	-0.08728359985351562	1.0047899780273437	-0.011391900062561034	-0.04934429931640625	1.01922998046875	0.004473509788513183	-0.09743479919433594	0.8754240112304688	0.004610879898071289	-0.08874669647216797	0.8985390014648438	0.0031983098983764647	-0.07937310028076172	0.9213460083007813	-0.0059258599281311036	-0.06235150146484375	0.9564180297851562	0.003008440017700195	-0.03174279975891113	0.851708984375	0.005304719924926758	-0.0341963996887207	0.8791309814453125	0.0040341801643371585	-0.03602569961547852	0.9094010009765625	-0.00583119010925293	-0.03633679962158203	0.950093017578125	0.005940959930419922	0.018585599899291993	0.8627050170898437	0.007662069797515869	0.009967129707336425	0.8879110107421875	0.006235079765319824	0.000384766012430191	0.9149739990234375	0.0008246240019798271	-0.012180700302124023	0.9515960083007813	0.030648700714111327	0.061622798919677736	0.9154509887695312	0.02277120018005371	0.04642100143432617	0.92931298828125	0.014001299858093261	0.03202569961547851	0.941406982421875	0.0009239699840545651	0.00940958023071289	0.9605029907226562	-0.036392299652099606	-0.016699699401855467	1.039469970703125
3	0.1	-0.011762800216674805	-0.13797300720214845	0.9858699951171875	2.0594600588083e-05	-0.11207099914550782	0.98777197265625	-0.009228619575500488	-0.08729440307617188	1.0045	-0.011078100204467773	-0.049293701171875	1.01897998046875	0.004718120098114014	-0.0977842025756836	0.8753079833984375	0.004990970134735108	-0.0890010986328125	0.8983270263671875	0.003554909944534301	-0.07948660278320313	0.9211400146484375	-0.006237579822540283	-0.06237260055541992	0.9564609985351562	0.003284480094909668	-0.033010799407958986	0.8516500244140625	0.005762209892272949	-0.03509510040283203	0.8789840087890625	0.004644780158996582	-0.036581501007080075	0.9091400146484375	-0.005646870136260986	-0.03639009857177734	0.9497069702148437	0.006287749767303467	0.01866110038757324	0.8625809936523438	0.00794674015045166	0.010126899719238282	0.88777001953125	0.00655279016494751	0.000456661999225616	0.9146820068359375	0.0009567959904670711	-0.012215100288391113	0.9512830200195312	0.031262699127197265	0.061756099700927734	0.91572802734375	0.023177099227905274	0.046423301696777344	0.9294110107421875	0.014334099769592285	0.03210329818725586	0.941583984375	0.001081590056419372	0.009410409927368165	0.9601630249023437	-0.03602560043334961	-0.016828800201416017	1.0393199462890625
